<svg width="88" height="88" viewBox="0 0 88 88" fill="none" xmlns="http://www.w3.org/2000/svg">
<path d="M2.06 29.73H20.17V88H2.06V29.73ZM11.12 0.730011C13.1971 0.730012 15.2276 1.34608 16.9545 2.50028C18.6815 3.65447 20.0273 5.29494 20.8217 7.21415C21.6161 9.13335 21.8235 11.2451 21.4175 13.2821C21.0115 15.3192 20.0105 17.1901 18.5411 18.6582C17.0716 20.1262 15.1998 21.1255 13.1623 21.5295C11.1249 21.9335 9.01334 21.7241 7.09489 20.9279C5.17644 20.1316 3.53726 18.7843 2.38471 17.0562C1.23215 15.3282 0.618022 13.2971 0.62 11.22C0.62265 8.43697 1.73007 5.76882 3.69891 3.80185C5.66776 1.83488 8.33696 0.73001 11.12 0.730011ZM31.53 29.73H48.89V37.73H49.13C51.55 33.15 57.45 28.32 66.26 28.32C84.6 28.28 88 40.35 88 56V88H69.89V59.65C69.89 52.9 69.77 44.21 60.48 44.21C51.19 44.21 49.61 51.57 49.61 59.21V88H31.53V29.73Z" fill="white"/>
</svg>
